<?xml version="1.0" standalone="no"?>
<!DOCTYPE svg PUBLIC "-//W3C//DTD SVG 1.1//EN" "http://www.w3.org/Graphics/SVG/1.1/DTD/svg11.dtd" >
<svg xmlns="http://www.w3.org/2000/svg">
<metadata></metadata>
<defs>
<font id="freedomregular" horiz-adv-x="1433" >
<font-face units-per-em="2048" ascent="1536" descent="-512" />
<missing-glyph horiz-adv-x="1024" />
<glyph horiz-adv-x="2048" />
<glyph horiz-adv-x="2048" />
<glyph unicode="&#xd;" horiz-adv-x="1024" />
<glyph unicode=" "  horiz-adv-x="1024" />
<glyph unicode="&#x09;" horiz-adv-x="1024" />
<glyph unicode="&#xa0;" horiz-adv-x="1024" />
<glyph unicode="A" d="M59 512q0 147 56.5 246.5t149.5 158t212 83t244 24.5q174 0 301 -40t210 -123t122 -213t39 -310q0 -61 -12.5 -122.5t-42 -109t-78 -77t-117.5 -29.5q-18 0 -25.5 15.5t-11.5 35.5q-53 -16 -98 -26.5t-90.5 -15.5t-92.5 -7t-104 -2q-125 0 -244 24.5t-212 83 t-149.5 156.5t-56.5 248zM334 526q0 -49 18.5 -93t50 -77.5t75.5 -54t93 -20.5h312q45 0 87 20.5t74.5 53t53 75.5t20.5 88q0 74 -40 121t-100 72.5t-128 35t-123 9.5t-123.5 -7.5t-129 -31t-100.5 -69.5t-40 -122z" />
<glyph unicode="B" d="M59 211v616q0 29 15.5 64t42 64.5t59.5 49t68 19.5h852q66 0 121 -29.5t94 -77t60.5 -105t21.5 -110.5q0 -25 -9.5 -48t-19.5 -45.5t-19.5 -45t-9.5 -45.5t9.5 -45t19.5 -47t19.5 -51.5t9.5 -52.5q0 -61 -25 -116.5t-69 -97.5t-103 -68t-129 -28l-711 -12q-45 0 -97 13.5 t-96 40t-74 65.5t-30 92zM371 238h610q16 0 45 3t56.5 11t48 23.5t20.5 39.5q0 10 -9 21.5t-22.5 22t-28 16.5t-24.5 6h-696v-143zM371 631h667q12 0 32 5t38 13t30.5 20.5t12.5 26.5q0 18 -13.5 33.5t-32 25t-41 14.5t-40.5 5h-653v-143z" />
<glyph unicode="C" d="M63 512q0 96 37 188.5t102.5 164t153.5 115.5t193 44h844q0 -61 -19.5 -115.5t-55.5 -94.5t-88 -62.5t-118 -22.5h-512q-37 0 -78 -18.5t-76.5 -47t-59.5 -67.5t-24 -78q0 -49 28 -90t71 -70.5t94 -46t96 -16.5h742q0 -133 -74 -214t-207 -81h-524q-109 0 -205 41 t-167 110.5t-112 163t-41 197.5z" />
<glyph unicode="D" d="M59 211v602q0 39 20.5 77t52.5 67.5t72 48t81 18.5h620q102 0 191.5 -44t155 -115.5t103.5 -164t38 -188.5q0 -104 -42 -197.5t-114 -163t-168 -110.5t-205 -41h-526q-43 0 -91 13.5t-90 40t-70 65.5t-28 92zM350 301h449q47 0 98 14.5t93 42t69.5 68.5t27.5 92 q0 43 -21.5 80t-56 64.5t-76.5 44t-81 16.5h-502v-422z" />
<glyph unicode="E" d="M59 479q0 102 21.5 190.5t71 157t128 115.5t193.5 70q121 4 218 8t208 4q82 0 170 -14.5t159.5 -50t118 -98t46.5 -161.5q0 -76 -37 -134t-95.5 -98t-132 -60.5t-149.5 -20.5h-639q14 -63 65.5 -108.5t120.5 -44.5h828q0 -49 -25.5 -92.5t-66.5 -75t-91.5 -49 t-97.5 -17.5h-600q-104 0 -182 43t-129 111.5t-77 153.5t-26 171zM346 618h660q14 0 40.5 3.5t53 11.5t46 22.5t19.5 38.5q0 29 -27.5 47.5t-70.5 29.5t-92 17.5t-94 7.5t-77 1h-38q-41 0 -110.5 -1t-139.5 -16.5t-120 -52.5t-50 -109z" />
<glyph unicode="F" d="M59 240v358q0 106 45.5 178t119 118t167.5 70.5t192.5 35t192.5 11.5t170 1q57 0 108.5 -1t102.5 -3t107.5 -5.5t128.5 -5.5v-18q0 -35 -17.5 -75t-46.5 -73.5t-67.5 -56t-81.5 -22.5h-582q-43 0 -85 -11.5t-74.5 -33t-53 -53t-20.5 -74.5h765q0 -29 -9 -66t-27.5 -70.5 t-46 -58.5t-64.5 -27l-633 -26v-332q-55 0 -108.5 17.5t-93 48t-64.5 74.5t-25 100z" />
<glyph unicode="G" d="M59 512q0 96 34 188.5t93.5 164t139.5 115.5t174 44h768q0 -61 -17.5 -115.5t-50.5 -94.5t-80 -62.5t-108 -22.5h-465q-33 0 -71 -18.5t-69.5 -47t-53 -67.5t-21.5 -78q0 -51 25.5 -92t63.5 -68.5t84 -42t89 -14.5h489q2 4 7 10q2 4 4 8.5t2 8.5v6v6q-78 2 -165 6 t-161 32t-122 88t-48 177h793v-369q0 -27 -11.5 -62.5t-27 -72.5t-35 -70.5t-33.5 -56.5q-74 -4 -135 -7t-120.5 -4t-121 -1h-135.5h-239q-98 14 -185.5 53t-152 102.5t-101.5 152.5t-37 204z" />
<glyph unicode="H" d="M0 256v768q90 0 148.5 -29.5t95.5 -79t55 -116t29 -140.5h759v365h306v-780q0 -61 -28 -105.5t-72 -73t-98 -43t-108 -14.5v342h-768v-338q0 -10 -14 -11t-20 -1q-53 0 -104.5 20.5t-91.5 55.5t-64.5 81t-24.5 99z" />
<glyph unicode="I" horiz-adv-x="327" d="M18 0v179.5t2.5 221t6.5 229.5t10 204q23 96 99.5 143t168.5 47v-173.5t-2 -222t-6.5 -232t-9.5 -206.5q-23 -96 -99.5 -143t-169.5 -47z" />
<glyph unicode="J" horiz-adv-x="860" d="M39 0q0 57 33.5 96t85 65.5t112 45t111.5 35t85 36t34 48.5v409q0 51 26.5 102.5t70.5 93.5t100.5 68.5t117.5 26.5v-756q0 -49 -35 -97t-88 -86t-114.5 -62.5t-116.5 -24.5h-422z" />
<glyph unicode="K" horiz-adv-x="1228" d="M43 18v758q0 51 27.5 97.5t72.5 80t103 53t119 19.5q6 0 23.5 -1t17.5 -11v-348q45 45 100 107.5t119.5 118.5t140.5 95t160 39q39 0 69.5 -4t57 -11t53.5 -19.5t61 -30.5v-7v-8q0 -4 -13 -19.5t-17 -19.5q-23 -18 -75 -71.5t-111.5 -113.5t-112 -113.5t-74.5 -73.5v-25 q23 -20 75 -73.5t111.5 -114t111.5 -113.5t75 -72q4 -4 17 -19.5t13 -19.5v-8v-6q-35 -18 -61.5 -30.5t-53 -19.5t-57 -11.5t-69.5 -4.5q-84 0 -158 39t-138.5 95.5t-118.5 118t-99 108.5q-12 -74 -33 -139.5t-60.5 -114.5t-106.5 -78t-169 -29z" />
<glyph unicode="L" horiz-adv-x="1228" d="M23 254v481q0 66 26.5 119t71.5 91t105.5 58.5t127.5 20.5v-721h527q70 0 126 -25.5t97 -68.5t63.5 -97.5t22.5 -111.5h-887q-55 0 -106.5 20.5t-89 55.5t-61 81t-23.5 97z" />
<glyph unicode="M" horiz-adv-x="2459" d="M94 213v430q0 88 49.5 157.5t122 119t156.5 75t156 25.5l270 2q41 0 86 -11.5t88 -27.5t82 -38.5t70 -43.5l34 -37q31 18 64 43t89 47.5t144 39t228 16.5h151q129 -18 217 -74.5t142.5 -142.5t79 -198t24.5 -239v-143q-6 -53 -29.5 -94t-58.5 -68.5t-79 -42t-89 -14.5 v565q0 63 -45 98t-106.5 52.5t-124 20.5t-97.5 3q-33 0 -91 -2t-116.5 -16.5t-102.5 -46t-46 -88.5l-21 -377q-2 -53 -26.5 -91t-62.5 -62.5t-83 -36t-84 -11.5v588q0 55 -47 87t-108.5 46t-123 17t-89.5 3q-45 0 -108.5 -4t-121 -22.5t-97.5 -57t-40 -110.5v-547 q-41 0 -85 14.5t-83 41t-63.5 66.5t-24.5 89z" />
<glyph unicode="N" horiz-adv-x="1435" d="M70 242v348q0 92 32.5 159.5t86 115.5t124 79t146.5 48.5t152.5 24.5t142.5 7q315 0 480 -149.5t165 -471.5v-161q-18 -117 -86 -179.5t-189 -62.5v539q0 70 -41 111.5t-99 63t-123.5 29t-112.5 7.5q-45 0 -114 -4.5t-133.5 -24t-110.5 -59t-46 -109.5v-553 q-53 0 -102 15.5t-88 46t-61.5 75.5t-22.5 105z" />
<glyph unicode="O" d="M0 512q0 147 59.5 246.5t157.5 158t223 83t256 24.5q135 0 261 -25.5t222.5 -86t155 -160t58.5 -248.5v-121q-33 -121 -103.5 -195.5t-166 -115.5t-206 -56.5t-221.5 -15.5q-131 0 -256 24.5t-223 83t-157.5 156.5t-59.5 248zM289 524q0 -47 19.5 -91t53 -77.5t79.5 -54 t98 -20.5h329q45 0 90.5 20.5t81 53t57 75.5t21.5 88q0 74 -43 121t-105.5 72.5t-135 35t-132.5 9.5q-59 0 -130.5 -7.5t-134 -31t-105.5 -69.5t-43 -124z" />
<glyph unicode="P" d="M59 -6v868q0 25 16.5 51.5t43 50t60.5 39t67 17.5h26.5t30.5 2q16 0 35 2v-59q6 2 24.5 10t38 16t36 14.5t18.5 6.5h483q98 0 181 -32t144.5 -84t95.5 -118.5t34 -134.5q0 -74 -38 -142.5t-104.5 -119.5t-156.5 -82t-193 -31h-559q-2 -53 -15 -102t-43 -88t-84.5 -61.5 t-140.5 -22.5zM342 485h518q43 0 87 11.5t81 33t59.5 50t22.5 63.5q0 33 -21.5 61.5t-55.5 49t-76 33t-85 12.5h-405q-10 0 -30.5 -6.5t-41 -14.5t-37 -17t-16.5 -16v-260z" />
<glyph unicode="Q" d="M59 643q0 68 34 134.5t95.5 118.5t144.5 84t181 32h483q2 0 18.5 -6.5t36 -14.5t38 -16t24.5 -10v59q18 -2 35 -2q14 -2 29.5 -2h27.5q33 -2 67 -17.5t60.5 -39t43 -50t16.5 -51.5v-868q-86 0 -140.5 22.5t-85 61.5t-43 88t-14.5 102h-559q-102 0 -192.5 31t-157 82 t-104.5 119.5t-38 142.5zM342 643q0 -35 22.5 -63.5t59.5 -50t81 -33t87 -11.5h518v260q0 6 -16.5 15.5t-37 17.5t-42 14.5t-29.5 6.5h-405q-43 0 -85 -12.5t-76 -33t-55.5 -49t-21.5 -61.5z" />
<glyph unicode="R" horiz-adv-x="1085" d="M27 729v12q0 129 89 199t246 84h25v-74h23q51 12 96 23.5t89 21t92 14.5t106 5h63.5t51 -1t50 -4t58.5 -10q4 0 8 -2t10 -4q6 -4 15 -6l-80 -233l-17 -13q-25 0 -76 -1t-113.5 -6t-129 -16t-121.5 -30.5t-90 -49.5t-35 -71v-368q0 -45 -34 -82t-83 -62.5t-106.5 -40 t-104.5 -14.5h-18q0 29 -1 86t-3 129t-3 150.5t-3 150.5t-3 128t-1 85z" />
<glyph unicode="S" d="M96 717q0 74 33 131t87 96t124 59.5t141 20.5h641q47 0 96.5 -20t88.5 -51t63.5 -74t24.5 -93h-860q-14 0 -35 -5t-39.5 -15t-30.5 -24.5t-12 -30.5q0 -18 10 -31.5t26.5 -21t34 -11.5t33.5 -6q60 0 152 3q46 2 94 2q50 0 100 -2q102 -3 201.5 -19.5t179.5 -54.5 t130.5 -102.5t50.5 -166.5v-84q-23 -68 -71 -111t-111.5 -69.5t-136.5 -36.5t-145 -14q-48 -3 -95 -3q-23 0 -47 1q-68 2 -122 2h-284q-45 8 -95.5 26.5t-93.5 48t-70.5 69.5t-27.5 93h858q10 0 35 5t49.5 14.5t43 25t18.5 37.5q0 20 -21.5 35.5t-51.5 26t-58.5 16.5 t-40.5 6h-545q-72 0 -130.5 28.5t-101.5 75t-66.5 105.5t-23.5 119z" />
<glyph unicode="T" d="M33 733q0 59 20.5 112.5t58.5 93.5t93 62.5t123 22.5h1034q0 -104 -44 -162.5t-117 -88.5t-163 -38t-182 -10v-518q0 -53 -31.5 -92t-79 -64.5t-101.5 -38t-99 -12.5v733h-512z" />
<glyph unicode="U" horiz-adv-x="1435" d="M70 434v348q0 57 22.5 102.5t61.5 76t88 47t102 16.5v-553q0 -70 46 -109.5t110.5 -59t133 -24t114.5 -4.5q47 0 112.5 7.5t123.5 29t99 63.5t41 111v539q121 0 188.5 -62.5t86.5 -179.5v-161q0 -322 -165 -471.5t-480 -149.5q-66 0 -142.5 7t-152.5 24.5t-146.5 48.5 t-124 79t-86 115.5t-32.5 159.5z" />
<glyph unicode="V" d="M78 961v14q0 16 16.5 25.5t39 14.5t43 7t30.5 2q78 0 140.5 -45t98.5 -117l283 -538l281 538q37 72 99 117t142 45q10 0 34 -3t47.5 -9t42 -16.5t18.5 -26.5v-8l-537 -961h-250z" />
<glyph unicode="W" horiz-adv-x="2455" d="M94 373v430q0 49 24.5 89t63.5 66.5t83 41t85 14.5v-547q0 -72 40 -111t97.5 -57t121 -22.5t108.5 -4.5q29 0 90 3.5t122.5 17.5t108.5 46t47 87v588q39 0 84 -12.5t83 -37t62.5 -62.5t26.5 -89l21 -377q2 -57 46 -89t102.5 -46t116.5 -16t91 -2q35 0 97.5 3t124 20.5 t106.5 52t45 98.5v565q45 0 89 -14.5t79 -42t58.5 -68.5t29.5 -94v-144q0 -127 -24.5 -238.5t-79 -197.5t-142.5 -142t-217 -75h-151q-139 0 -227.5 16.5t-144.5 39t-89 47t-64 43.5l-34 -37q-31 -23 -70 -44.5t-82 -38t-88 -27.5t-86 -11l-270 2q-72 0 -156 25.5 t-156.5 74.5t-122 119t-49.5 158z" />
<glyph unicode="X" d="M49 90l4 8q4 8 10 15l404 389v10q-51 31 -117.5 68.5t-127 82t-102.5 95.5t-42 110q0 10 3 36t12 52.5t24.5 47t40.5 20.5h8q2 0 7 -2t9 -4l13 -4l491 -301q82 84 162 151q33 29 69.5 56.5t71.5 50t68 37t61 16.5h74q10 0 41 -2t62.5 -8t57 -17.5t25.5 -27.5v-11 l-417 -401v-6q0 -33 30.5 -62.5t77.5 -57.5t100.5 -57.5t100.5 -62t77.5 -72.5t30.5 -89q0 -37 -22.5 -73t-48.5 -65q-4 -4 -6.5 -5t-4.5 -3l-4 -4l-522 322q-6 2 -12 6q-4 2 -8.5 4t-8.5 2h-6q-39 0 -73.5 -23.5t-68.5 -57.5t-69 -75t-74.5 -74.5t-86 -57t-103.5 -23.5 q-14 0 -49 4t-71 12t-63.5 21.5t-27.5 29.5z" />
<glyph unicode="Y" horiz-adv-x="1431" d="M49 690v338q84 0 133 -35t80 -86t51.5 -112.5t47 -112.5t69.5 -86t119 -35h336q76 0 119 35t69.5 86t47 112.5t51 112.5t78.5 86t134 35v-338q0 -104 -55 -177t-136 -119t-171 -68.5t-160 -26.5q-18 -72 -36.5 -128t-49.5 -95t-79 -60.5t-124 -21.5v305q-72 4 -163 26.5 t-170.5 68.5t-135 119t-55.5 177z" />
<glyph unicode="Z" d="M31 0l706 739h-381q-63 0 -109 31t-76 75t-44 93t-14 86h1261q0 -14 -12 -29.5t-19 -21.5q-23 -25 -68.5 -75t-104 -113.5t-123 -133t-123 -133t-104.5 -115t-68 -73.5l-15 -33h637v-297h-1343z" />
<glyph unicode="a" d="M59 512q0 147 56.5 246.5t149.5 158t212 83t244 24.5q174 0 301 -40t210 -123t122 -213t39 -310q0 -61 -12.5 -122.5t-42 -109t-78 -77t-117.5 -29.5q-18 0 -25.5 15.5t-11.5 35.5q-53 -16 -98 -26.5t-90.5 -15.5t-92.5 -7t-104 -2q-125 0 -244 24.5t-212 83 t-149.5 156.5t-56.5 248zM334 526q0 -49 18.5 -93t50 -77.5t75.5 -54t93 -20.5h312q45 0 87 20.5t74.5 53t53 75.5t20.5 88q0 74 -40 121t-100 72.5t-128 35t-123 9.5t-123.5 -7.5t-129 -31t-100.5 -69.5t-40 -122z" />
<glyph unicode="b" d="M59 211v616q0 29 15.5 64t42 64.5t59.5 49t68 19.5h852q66 0 121 -29.5t94 -77t60.5 -105t21.5 -110.5q0 -25 -9.5 -48t-19.5 -45.5t-19.5 -45t-9.5 -45.5t9.5 -45t19.5 -47t19.5 -51.5t9.5 -52.5q0 -61 -25 -116.5t-69 -97.5t-103 -68t-129 -28l-711 -12q-45 0 -97 13.5 t-96 40t-74 65.5t-30 92zM371 238h610q16 0 45 3t56.5 11t48 23.5t20.5 39.5q0 10 -9 21.5t-22.5 22t-28 16.5t-24.5 6h-696v-143zM371 631h667q12 0 32 5t38 13t30.5 20.5t12.5 26.5q0 18 -13.5 33.5t-32 25t-41 14.5t-40.5 5h-653v-143z" />
<glyph unicode="c" d="M63 512q0 96 37 188.5t102.5 164t153.5 115.5t193 44h844q0 -61 -19.5 -115.5t-55.5 -94.5t-88 -62.5t-118 -22.5h-512q-37 0 -78 -18.5t-76.5 -47t-59.5 -67.5t-24 -78q0 -49 28 -90t71 -70.5t94 -46t96 -16.5h742q0 -133 -74 -214t-207 -81h-524q-109 0 -205 41 t-167 110.5t-112 163t-41 197.5z" />
<glyph unicode="d" d="M59 211v602q0 39 20.5 77t52.5 67.5t72 48t81 18.5h620q102 0 191.5 -44t155 -115.5t103.5 -164t38 -188.5q0 -104 -42 -197.5t-114 -163t-168 -110.5t-205 -41h-526q-43 0 -91 13.5t-90 40t-70 65.5t-28 92zM350 301h449q47 0 98 14.5t93 42t69.5 68.5t27.5 92 q0 43 -21.5 80t-56 64.5t-76.5 44t-81 16.5h-502v-422z" />
<glyph unicode="e" d="M59 479q0 102 21.5 190.5t71 157t128 115.5t193.5 70q121 4 218 8t208 4q82 0 170 -14.5t159.5 -50t118 -98t46.5 -161.5q0 -76 -37 -134t-95.5 -98t-132 -60.5t-149.5 -20.5h-639q14 -63 65.5 -108.5t120.5 -44.5h828q0 -49 -25.5 -92.5t-66.5 -75t-91.5 -49 t-97.5 -17.5h-600q-104 0 -182 43t-129 111.5t-77 153.5t-26 171zM346 618h660q14 0 40.5 3.5t53 11.5t46 22.5t19.5 38.5q0 29 -27.5 47.5t-70.5 29.5t-92 17.5t-94 7.5t-77 1h-38q-41 0 -110.5 -1t-139.5 -16.5t-120 -52.5t-50 -109z" />
<glyph unicode="f" horiz-adv-x="1413" d="M45 240v358q0 106 45 178t119 118t168 70.5t192.5 35t192.5 11.5t170 1q57 0 108.5 -1t102.5 -3t107.5 -5.5t127.5 -5.5v-18q0 -35 -17.5 -75t-46 -73.5t-67.5 -56t-82 -22.5h-581q-43 0 -85 -11.5t-75 -33t-53.5 -53t-20.5 -74.5h766q0 -29 -9 -66t-27.5 -70.5 t-46 -58.5t-64.5 -27l-633 -26v-332q-55 0 -108.5 17.5t-93.5 48t-64.5 74.5t-24.5 100z" />
<glyph unicode="g" d="M59 512q0 96 34 188.5t93.5 164t139.5 115.5t174 44h768q0 -61 -17.5 -115.5t-50.5 -94.5t-80 -62.5t-108 -22.5h-465q-33 0 -71 -18.5t-69.5 -47t-53 -67.5t-21.5 -78q0 -51 25.5 -92t63.5 -68.5t84 -42t89 -14.5h489q2 4 7 10q2 4 4 8.5t2 8.5v6v6q-78 2 -165 6 t-161 32t-122 88t-48 177h793v-369q0 -27 -11.5 -62.5t-27 -72.5t-35 -70.5t-33.5 -56.5q-74 -4 -135 -7t-120.5 -4t-121 -1h-135.5h-239q-98 14 -185.5 53t-152 102.5t-101.5 152.5t-37 204z" />
<glyph unicode="h" d="M0 256v768q90 0 148.5 -29.5t95.5 -79t55 -116t29 -140.5h759v365h306v-780q0 -61 -28 -105.5t-72 -73t-98 -43t-108 -14.5v342h-768v-338q0 -10 -14 -11t-20 -1q-53 0 -104.5 20.5t-91.5 55.5t-64.5 81t-24.5 99z" />
<glyph unicode="i" horiz-adv-x="327" d="M18 0v179.5t2.5 221t6.5 229.5t10 204q23 96 99.5 143t168.5 47v-173.5t-2 -222t-6.5 -232t-9.5 -206.5q-23 -96 -99.5 -143t-169.5 -47z" />
<glyph unicode="j" horiz-adv-x="860" d="M39 0q0 57 33.5 96t85 65.5t112 45t111.5 35t85 36t34 48.5v409q0 51 26.5 102.5t70.5 93.5t100.5 68.5t117.5 26.5v-756q0 -49 -35 -97t-88 -86t-114.5 -62.5t-116.5 -24.5h-422z" />
<glyph unicode="k" horiz-adv-x="1228" d="M43 18v758q0 51 27.5 97.5t72.5 80t103 53t119 19.5q6 0 23.5 -1t17.5 -11v-348q45 45 100 107.5t119.5 118.5t140.5 95t160 39q39 0 69.5 -4t57 -11t53.5 -19.5t61 -30.5v-7v-8q0 -4 -13 -19.5t-17 -19.5q-23 -18 -75 -71.5t-111.5 -113.5t-112 -113.5t-74.5 -73.5v-25 q23 -20 75 -73.5t111.5 -114t111.5 -113.5t75 -72q4 -4 17 -19.5t13 -19.5v-8v-6q-35 -18 -61.5 -30.5t-53 -19.5t-57 -11.5t-69.5 -4.5q-84 0 -158 39t-138.5 95.5t-118.5 118t-99 108.5q-12 -74 -33 -139.5t-60.5 -114.5t-106.5 -78t-169 -29z" />
<glyph unicode="l" horiz-adv-x="1232" d="M23 254v481q0 66 26.5 119t71.5 91t105.5 58.5t127.5 20.5v-721h527q70 0 126 -25.5t97 -68.5t63.5 -97.5t22.5 -111.5h-887q-55 0 -106.5 20.5t-89 55.5t-61 81t-23.5 97z" />
<glyph unicode="m" horiz-adv-x="2459" d="M94 213v430q0 88 49.5 157.5t122 119t156.5 75t156 25.5l270 2q41 0 86 -11.5t88 -27.5t82 -38.5t70 -43.5l34 -37q31 18 64 43t89 47.5t144 39t228 16.5h151q129 -18 217 -74.5t142.5 -142.5t79 -198t24.5 -239v-143q-6 -53 -29.5 -94t-58.5 -68.5t-79 -42t-89 -14.5 v565q0 63 -45 98t-106.5 52.5t-124 20.5t-97.5 3q-33 0 -91 -2t-116.5 -16.5t-102.5 -46t-46 -88.5l-21 -377q-2 -53 -26.5 -91t-62.5 -62.5t-83 -36t-84 -11.5v588q0 55 -47 87t-108.5 46t-123 17t-89.5 3q-45 0 -108.5 -4t-121 -22.5t-97.5 -57t-40 -110.5v-547 q-41 0 -85 14.5t-83 41t-63.5 66.5t-24.5 89z" />
<glyph unicode="n" d="M70 242v348q0 92 32.5 159.5t86 115.5t124 79t146.5 48.5t152.5 24.5t142.5 7q315 0 480 -149.5t165 -471.5v-161q-18 -117 -86 -179.5t-189 -62.5v539q0 70 -41 111.5t-99 63t-123.5 29t-112.5 7.5q-45 0 -114 -4.5t-133.5 -24t-110.5 -59t-46 -109.5v-553 q-53 0 -102 15.5t-88 46t-61.5 75.5t-22.5 105z" />
<glyph unicode="o" d="M0 512q0 147 59.5 246.5t157.5 158t223 83t256 24.5q135 0 261 -25.5t222.5 -86t155 -160t58.5 -248.5v-121q-33 -121 -103.5 -195.5t-166 -115.5t-206 -56.5t-221.5 -15.5q-131 0 -256 24.5t-223 83t-157.5 156.5t-59.5 248zM289 524q0 -47 19.5 -91t53 -77.5t79.5 -54 t98 -20.5h329q45 0 90.5 20.5t81 53t57 75.5t21.5 88q0 74 -43 121t-105.5 72.5t-135 35t-132.5 9.5q-59 0 -130.5 -7.5t-134 -31t-105.5 -69.5t-43 -124z" />
<glyph unicode="p" horiz-adv-x="1431" d="M59 -6v868q0 25 16.5 51.5t43 50t60.5 39t67 17.5h26.5t30.5 2q16 0 35 2v-59q6 2 24.5 10t38 16t36 14.5t18.5 6.5h483q98 0 181 -32t144.5 -84t95.5 -118.5t34 -134.5q0 -74 -38 -142.5t-104.5 -119.5t-156.5 -82t-193 -31h-559q-2 -53 -14.5 -102t-43 -88t-85 -61.5 t-140.5 -22.5zM342 485h518q43 0 87 11.5t81 33t59.5 50t22.5 63.5q0 33 -21.5 61.5t-55.5 49t-76 33t-85 12.5h-405q-10 0 -30.5 -6.5t-41 -14.5t-37 -17t-16.5 -16v-260z" />
<glyph unicode="q" d="M59 643q0 68 34 134.5t95.5 118.5t144.5 84t181 32h483q2 0 18.5 -6.5t36 -14.5t38 -16t24.5 -10v59q18 -2 35 -2q14 -2 29.5 -2h27.5q33 -2 67 -17.5t60.5 -39t43 -50t16.5 -51.5v-868q-86 0 -140.5 22.5t-85 61.5t-43 88t-14.5 102h-559q-102 0 -192.5 31t-157 82 t-104.5 119.5t-38 142.5zM342 643q0 -35 22.5 -63.5t59.5 -50t81 -33t87 -11.5h518v260q0 6 -16.5 15.5t-37 17.5t-42 14.5t-29.5 6.5h-405q-43 0 -85 -12.5t-76 -33t-55.5 -49t-21.5 -61.5z" />
<glyph unicode="r" horiz-adv-x="1085" d="M27 729v12q0 129 89 199t246 84h25v-74h23q51 12 96 23.5t89 21t92 14.5t106 5h63.5t51 -1t50 -4t58.5 -10q4 0 8 -2t10 -4q6 -4 15 -6l-80 -233l-17 -13q-25 0 -76 -1t-113.5 -6t-129 -16t-121.5 -30.5t-90 -49.5t-35 -71v-368q0 -45 -34 -82t-83 -62.5t-106.5 -40 t-104.5 -14.5h-18q0 29 -1 86t-3 129t-3 150.5t-3 150.5t-3 128t-1 85z" />
<glyph unicode="s" d="M96 717q0 74 33 131t87 96t124 59.5t141 20.5h641q47 0 96.5 -20t88.5 -51t63.5 -74t24.5 -93h-860q-14 0 -35 -5t-39.5 -15t-30.5 -24.5t-12 -30.5q0 -18 10 -31.5t26.5 -21t34 -11.5t33.5 -6q60 0 152 3q46 2 94 2q50 0 100 -2q102 -3 201.5 -19.5t179.5 -54.5 t130.5 -102.5t50.5 -166.5v-84q-23 -68 -71 -111t-111.5 -69.5t-136.5 -36.5t-145 -14q-48 -3 -95 -3q-23 0 -47 1q-68 2 -122 2h-284q-45 8 -95.5 26.5t-93.5 48t-70.5 69.5t-27.5 93h858q10 0 35 5t49.5 14.5t43 25t18.5 37.5q0 20 -21.5 35.5t-51.5 26t-58.5 16.5 t-40.5 6h-545q-72 0 -130.5 28.5t-101.5 75t-66.5 105.5t-23.5 119z" />
<glyph unicode="t" d="M33 733q0 59 20.5 112.5t58.5 93.5t93 62.5t123 22.5h1034q0 -104 -44 -162.5t-117 -88.5t-163 -38t-182 -10v-518q0 -53 -31.5 -92t-79 -64.5t-101.5 -38t-99 -12.5v733h-512z" />
<glyph unicode="u" d="M70 434v348q0 57 22.5 102.5t61.5 76t88 47t102 16.5v-553q0 -70 46 -109.5t110.5 -59t133 -24t114.5 -4.5q47 0 112.5 7.5t123.5 29t99 63.5t41 111v539q121 0 188.5 -62.5t86.5 -179.5v-161q0 -322 -165 -471.5t-480 -149.5q-66 0 -142.5 7t-152.5 24.5t-146.5 48.5 t-124 79t-86 115.5t-32.5 159.5z" />
<glyph unicode="v" d="M78 961v14q0 16 16.5 25.5t39 14.5t43 7t30.5 2q78 0 140.5 -45t98.5 -117l283 -538l281 538q37 72 99 117t142 45q10 0 34 -3t47.5 -9t42 -16.5t18.5 -26.5v-8l-537 -961h-250z" />
<glyph unicode="w" horiz-adv-x="2455" d="M94 373v430q0 49 24.5 89t63.5 66.5t83 41t85 14.5v-547q0 -72 40 -111t97.5 -57t121 -22.5t108.5 -4.5q29 0 90 3.5t122.5 17.5t108.5 46t47 87v588q39 0 84 -12.5t83 -37t62.5 -62.5t26.5 -89l21 -377q2 -57 46 -89t102.5 -46t116.5 -16t91 -2q35 0 97.5 3t124 20.5 t106.5 52t45 98.5v565q45 0 89 -14.5t79 -42t58.5 -68.5t29.5 -94v-144q0 -127 -24.5 -238.5t-79 -197.5t-142.5 -142t-217 -75h-151q-139 0 -227.5 16.5t-144.5 39t-89 47t-64 43.5l-34 -37q-31 -23 -70 -44.5t-82 -38t-88 -27.5t-86 -11l-270 2q-72 0 -156 25.5 t-156.5 74.5t-122 119t-49.5 158z" />
<glyph unicode="x" d="M49 90l4 8q4 8 10 15l404 389v10q-51 31 -117.5 68.5t-127 82t-102.5 95.5t-42 110q0 10 3 36t12 52.5t24.5 47t40.5 20.5h8q2 0 7 -2t9 -4l13 -4l491 -301q82 84 162 151q33 29 69.5 56.5t71.5 50t68 37t61 16.5h74q10 0 41 -2t62.5 -8t57 -17.5t25.5 -27.5v-11 l-417 -401v-6q0 -33 30.5 -62.5t77.5 -57.5t100.5 -57.5t100.5 -62t77.5 -72.5t30.5 -89q0 -37 -22.5 -73t-48.5 -65q-4 -4 -6.5 -5t-4.5 -3l-4 -4l-522 322q-6 2 -12 6q-4 2 -8.5 4t-8.5 2h-6q-39 0 -73.5 -23.5t-68.5 -57.5t-69 -75t-74.5 -74.5t-86 -57t-103.5 -23.5 q-14 0 -49 4t-71 12t-63.5 21.5t-27.5 29.5z" />
<glyph unicode="y" horiz-adv-x="1431" d="M49 690v338q84 0 133 -35t80 -86t51.5 -112.5t47 -112.5t69.5 -86t119 -35h336q76 0 119 35t69.5 86t47 112.5t51 112.5t78.5 86t134 35v-338q0 -104 -55 -177t-136 -119t-171 -68.5t-160 -26.5q-18 -72 -36.5 -128t-49.5 -95t-79 -60.5t-124 -21.5v305q-72 4 -163 26.5 t-170.5 68.5t-135 119t-55.5 177z" />
<glyph unicode="z" d="M31 0l706 739h-381q-63 0 -109 31t-76 75t-44 93t-14 86h1261q0 -14 -12 -29.5t-19 -21.5q-23 -25 -68.5 -75t-104 -113.5t-123 -133t-123 -133t-104.5 -115t-68 -73.5l-15 -33h637v-297h-1343z" />
<glyph unicode="&#xb6;" horiz-adv-x="1705" />
<glyph unicode="&#x2000;" horiz-adv-x="682" />
<glyph unicode="&#x2001;" horiz-adv-x="1365" />
<glyph unicode="&#x2002;" horiz-adv-x="682" />
<glyph unicode="&#x2003;" horiz-adv-x="1365" />
<glyph unicode="&#x2004;" horiz-adv-x="455" />
<glyph unicode="&#x2005;" horiz-adv-x="341" />
<glyph unicode="&#x2006;" horiz-adv-x="227" />
<glyph unicode="&#x2007;" horiz-adv-x="227" />
<glyph unicode="&#x2008;" horiz-adv-x="170" />
<glyph unicode="&#x2009;" horiz-adv-x="273" />
<glyph unicode="&#x200a;" horiz-adv-x="75" />
<glyph unicode="&#x202f;" horiz-adv-x="273" />
<glyph unicode="&#x205f;" horiz-adv-x="341" />
<glyph unicode="&#xe000;" horiz-adv-x="1024" d="M0 0v1024h1024v-1024h-1024z" />
</font>
</defs>
</svg>
